<!DOCTYPE svg PUBLIC "-//W3C//DTD SVG 1.1//EN" "http://www.w3.org/Graphics/SVG/1.1/DTD/svg11.dtd">
<!-- Uploaded to: SVG Repo, www.svgrepo.com, Transformed by: SVG Repo Mixer Tools -->
<svg width="800px" height="800px" viewBox="-20 0 190 190" fill="none" xmlns="http://www.w3.org/2000/svg">
<g id="SVGRepo_bgCarrier" stroke-width="0"/>
<g id="SVGRepo_iconCarrier"> <path fill-rule="evenodd" clip-rule="evenodd" d="M107.313 147.934C102.663 147.934 49.191 147.043 43.232 146.916C36.437 146.77 34.092 142.928 34.092 136.733C34.092 135.828 34.133 133.406 34.198 130.111L68.113 129.778L69.619 137.307L82.178 136.341L82.849 129.633L115.876 129.309C115.908 133.593 115.918 136.858 115.892 138.063C115.747 144.75 113.08 147.934 107.313 147.934ZM35.109 89.8911L115.439 90.9101C115.45 90.9651 115.694 109.379 115.826 123.299L34.286 125.89C34.58 111.921 35.109 89.8911 35.109 89.8911ZM90.303 86.6601V82.7641L59.673 81.7451V85.9951L51.505 85.8181C51.505 85.8181 51.321 82.7851 51.264 80.3171C51.159 75.8231 53.862 73.7291 58.993 73.5551C61.428 73.4731 87.826 74.5211 90.874 74.5211C96.397 74.5211 98.575 76.6961 98.603 80.3171C98.623 82.8251 98.416 86.8361 98.416 86.8361L90.303 86.6601Z" fill="#ffffff"/> </g>
</svg>