<!DOCTYPE svg PUBLIC "-//W3C//DTD SVG 1.1//EN" "http://www.w3.org/Graphics/SVG/1.1/DTD/svg11.dtd">
<!-- Uploaded to: SVG Repo, www.svgrepo.com, Transformed by: SVG Repo Mixer Tools -->
<svg fill="#ffffff" version="1.1" id="Capa_1" xmlns="http://www.w3.org/2000/svg" xmlns:xlink="http://www.w3.org/1999/xlink" width="800px" height="800px" viewBox="0 0 196.061 196.062" xml:space="preserve">
<g id="SVGRepo_bgCarrier" stroke-width="0"/>
<g id="SVGRepo_iconCarrier"> <g> <g> <path d="M98.057,65.032c7.018,0,12.718-8.14,12.718-15.16c0-7.023-5.7-12.722-12.718-12.722c-7.021,0-12.714,5.694-12.714,12.722 C85.343,56.893,91.037,65.032,98.057,65.032z"/> <path d="M82.958,89.095l0.01-10.317c0.327-0.096,0.663-0.196,1.015-0.298v10.616h10.802l2.647-20.594h-0.044l-1.191-2.399 c-9.324,0.459-19.495,4.11-19.96,4.282c-0.049,0.011-0.065,0.052-0.112,0.063c-0.357,0.145-0.653,0.375-0.969,0.594 c-0.229,0.155-0.492,0.268-0.684,0.459c-0.234,0.23-0.386,0.52-0.582,0.796c-0.172,0.258-0.392,0.482-0.515,0.767 c-0.117,0.263-0.14,0.561-0.218,0.841c-0.091,0.352-0.209,0.7-0.214,1.069c0,0.047-0.028,0.085-0.028,0.131L72.89,89.246 c0.481-0.08,0.962-0.151,1.46-0.151H82.958z"/> <path d="M114.385,71.191l0.958-0.38l0.858-1.62c-3.885-1.16-10.235-2.791-16.282-3.089l-1.189,2.399h-0.033l2.638,20.591h4.309 l3.993-7.524l-0.219-1.004C108.552,76.614,110.645,72.676,114.385,71.191z"/> <path d="M164.793,59.39c7.526,0,13.628-8.725,13.628-16.238c0-7.519-6.102-13.622-13.628-13.622 c-7.513,0-13.612,6.096-13.612,13.622C151.181,50.666,157.281,59.39,164.793,59.39z"/> <path d="M190.682,93.694c-0.269,0-0.498,0.112-0.75,0.151l0.448-0.497c0.887-0.994,1.381-2.278,1.381-3.61l-0.046-19.562 c0-0.049-0.027-0.087-0.027-0.134c-0.011-0.397-0.136-0.766-0.229-1.148c-0.08-0.302-0.104-0.616-0.234-0.901 c-0.13-0.308-0.362-0.549-0.554-0.824c-0.202-0.292-0.366-0.607-0.618-0.853c-0.208-0.201-0.485-0.324-0.732-0.488 c-0.34-0.236-0.649-0.481-1.041-0.632c-0.043-0.017-0.07-0.057-0.117-0.068c-0.495-0.178-11.388-4.09-21.376-4.583l-1.278,2.566 h-0.041l3.628,28.247l-4.316,7.525l-4.305-7.525l3.614-28.247h-0.032l-1.275-2.561c-9.636,0.471-20.082,4.113-21.264,4.534 l-21.323,7.111l1.284-2.405c0.274-0.525,0.083-1.176-0.448-1.45c-0.514-0.282-1.171-0.085-1.461,0.443l-2.336,4.401l-1.555,0.518 c-2.824,0.941-4.346,3.989-3.403,6.812c0.131,0.38,0.341,0.695,0.536,1.026l-3.981,7.523c-0.276,0.529-0.084,1.177,0.446,1.458 c0.16,0.082,0.328,0.124,0.506,0.124c0.375,0,0.753-0.208,0.949-0.572l3.636-6.848c0.884,0.609,1.946,0.957,3.04,0.957 c0.569,0,1.139-0.088,1.708-0.274l25.844-8.618c0.024-0.006,0.038-0.028,0.057-0.039c0.037-0.005,0.048,0,0.069-0.005 c0.057-0.017,1.904-0.673,4.643-1.453v35.198l-14.074,2.823c-2.886,0.587-5.023,3.043-5.178,5.986l-2.288,41.905 c-0.196,3.567,2.539,6.615,6.107,6.807c0.114,0.006,0.229,0.011,0.35,0.011c3.404,0,6.262-2.671,6.445-6.106l2.017-36.914 l5.524-1.116v37.669c0,2.978,2.413,5.385,5.391,5.385h36.658c2.964,0,5.383-2.414,5.383-5.385v-42.495v-4.312V99.074 C196.066,96.105,193.653,93.694,190.682,93.694z M179.875,73.796c0.372,0.112,0.733,0.218,1.078,0.32l0.023,13.571l-1.102,1.233 V73.796z M185.299,154.68h-25.89v-28.537l25.89-6.084V154.68z M185.299,99.079v9.915l-5.425,1.274v-5.236l5.444-6.052 C185.319,99.014,185.299,99.041,185.299,99.079z"/> <path d="M31.278,59.39c7.513,0,13.616-8.725,13.616-16.238c0-7.519-6.103-13.622-13.616-13.622 c-7.524,0-13.624,6.096-13.624,13.622C17.654,50.666,23.754,59.39,31.278,59.39z"/> <path d="M60.421,111.817l-14.07-2.823V73.796c0.383,0.112,0.74,0.213,1.074,0.314v21.921c0,2.041,1.156,3.901,2.977,4.821 l8.619,4.306c0.772,0.378,1.595,0.575,2.402,0.575c1.978,0,3.88-1.089,4.822-2.988c1.326-2.66,0.256-5.888-2.417-7.226 l-5.631-2.813V70.184c0-0.052-0.03-0.09-0.03-0.148c-0.01-0.396-0.139-0.771-0.234-1.154c-0.077-0.296-0.105-0.61-0.222-0.889 c-0.138-0.315-0.377-0.567-0.567-0.84c-0.203-0.287-0.364-0.596-0.618-0.836c-0.21-0.208-0.486-0.329-0.743-0.504 c-0.331-0.224-0.639-0.471-1.026-0.621c-0.038-0.019-0.072-0.058-0.117-0.068c-0.493-0.178-11.39-4.089-21.382-4.583l-1.278,2.566 h-0.034l3.621,28.247l-4.31,7.523l-4.314-7.523l3.625-28.247h-0.04l-1.282-2.566c-9.987,0.493-20.885,4.402-21.371,4.583 c-0.053,0.011-0.075,0.049-0.119,0.068c-0.388,0.15-0.705,0.402-1.042,0.632c-0.248,0.169-0.529,0.285-0.736,0.486 c-0.252,0.247-0.413,0.562-0.616,0.854c-0.189,0.273-0.42,0.514-0.556,0.824c-0.128,0.279-0.151,0.594-0.235,0.9 c-0.093,0.383-0.215,0.747-0.229,1.149c0,0.046-0.028,0.09-0.028,0.134L4.308,89.738c-0.005,1.332,0.487,2.616,1.379,3.61 l0.449,0.497c-0.25-0.039-0.481-0.151-0.752-0.151C2.416,93.694,0,96.11,0,99.079v14.186v4.305v42.495 c0,2.977,2.416,5.391,5.384,5.391h36.657c2.977,0,5.384-2.419,5.384-5.391v-37.669l5.532,1.11l2.011,36.914 c0.192,3.448,3.044,6.111,6.45,6.111c0.117,0,0.234,0,0.353-0.01c3.564-0.197,6.298-3.24,6.104-6.803l-2.288-41.903 C65.442,114.86,63.305,112.404,60.421,111.817z M15.114,74.116c0.346-0.102,0.705-0.208,1.081-0.32V88.92l-1.106-1.233 L15.114,74.116z M16.199,105.032v5.236l-5.425-1.274v-9.915c0-0.032-0.021-0.065-0.021-0.099L16.199,105.032z M36.662,154.68 H10.774v-34.621l25.887,6.084V154.68z"/> <path d="M121.74,91.897H74.35c-3.567,0-6.459,2.889-6.459,6.459c0,3.567,2.898,6.457,6.459,6.457h1.2v55.245 c0,2.978,2.409,5.385,5.386,5.385h34.229c2.97,0,5.383-2.414,5.383-5.385v-55.245h1.192c3.57,0,6.457-2.89,6.457-6.457 C128.205,94.786,125.31,91.897,121.74,91.897z"/> </g> </g> </g>
</svg>