<!DOCTYPE svg PUBLIC "-//W3C//DTD SVG 1.1//EN" "http://www.w3.org/Graphics/SVG/1.1/DTD/svg11.dtd">
<!-- Uploaded to: SVG Repo, www.svgrepo.com, Transformed by: SVG Repo Mixer Tools -->
<svg fill="#ffffff" height="800px" width="800px" version="1.1" id="Layer_1" xmlns="http://www.w3.org/2000/svg" xmlns:xlink="http://www.w3.org/1999/xlink" viewBox="0 0 512.001 512.001" xml:space="preserve">
<g id="SVGRepo_bgCarrier" stroke-width="0"/>
<g id="SVGRepo_iconCarrier"> <g> <g> <path d="M71.466,244.091l-0.048,0.001c-29.534,0.014-53.558,24.046-53.558,53.584c0.002,16.409,13.356,29.761,29.769,29.764 h47.628c16.413,0,29.766-13.354,29.766-29.769C125.024,268.136,101,244.105,71.466,244.091z"/> </g> </g> <g> <g> <circle cx="71.442" cy="214.326" r="29.767"/> </g> </g> <g> <g> <path d="M256.022,428.652l-0.049-0.001c-29.534,0.014-53.558,24.046-53.558,53.585c0.002,16.409,13.356,29.761,29.769,29.765 h47.628c16.413,0,29.766-13.354,29.766-29.769C309.578,452.697,285.555,428.667,256.022,428.652z"/> </g> </g> <g> <g> <circle cx="256.001" cy="398.884" r="29.767"/> </g> </g> <g> <g> <path d="M440.582,244.092h-0.049c-29.534,0.014-53.556,24.046-53.556,53.585c0.001,16.409,13.355,29.761,29.767,29.765h47.628 c16.414,0,29.767-13.355,29.767-29.769C494.14,268.138,470.117,244.107,440.582,244.092z"/> </g> </g> <g> <g> <circle cx="440.559" cy="214.326" r="29.767"/> </g> </g> <g> <g> <path d="M256.023,59.533l-0.049,0.001c-29.534,0.014-53.556,24.046-53.556,53.585c0.002,16.409,13.356,29.761,29.769,29.764 h47.628c16.413,0,29.766-13.354,29.766-29.769C309.581,83.579,285.557,59.548,256.023,59.533z"/> </g> </g> <g> <g> <circle cx="256.001" cy="29.767" r="29.767"/> </g> </g> <g> <g> <path d="M337.823,77.405c4.801,10.943,7.479,23.016,7.479,35.709c0,3.016-0.221,5.979-0.62,8.887 c18.986,12.606,35.149,29.134,47.328,48.42c8.034-8.874,18.465-15.529,30.256-18.965 C401.975,119.301,372.626,93.413,337.823,77.405z"/> </g> </g> <g> <g> <path d="M190.638,402.843c-24.502-10.95-45.776-27.856-61.982-48.87c-9.786,5.828-21.206,9.189-33.399,9.189h-3.842 c21.204,32.455,51.732,58.289,87.76,73.654c3.986-6.708,8.803-12.867,14.342-18.3 C191.945,413.521,190.966,408.269,190.638,402.843z"/> </g> </g> <g> <g> <path d="M174.177,77.405c-34.803,16.008-64.152,41.896-84.442,74.049c11.79,3.439,22.222,10.094,30.256,18.968 c12.178-19.287,28.341-35.814,47.325-48.42c-0.396-2.906-0.619-5.867-0.619-8.88C166.697,100.426,169.376,88.349,174.177,77.405z"/> </g> </g> <g> <g> <path d="M416.745,363.162v0.001c-12.194-0.002-23.614-3.364-33.4-9.192c-16.205,21.016-37.484,37.926-61.992,48.875 c-0.325,5.425-1.306,10.675-2.877,15.667c5.54,5.433,10.359,11.594,14.344,18.303c36.031-15.366,66.558-41.199,87.763-73.654 H416.745z"/> </g> </g> </g>
</svg>